<svg width="31" height="31" viewBox="0 0 31 31" fill="none" xmlns="http://www.w3.org/2000/svg">
<path d="M2.90527 13.3466L13.8435 4.59602C14.7565 3.86559 16.054 3.86559 16.967 4.59602L27.9053 13.3466" stroke="#FAFAFA" stroke-width="1.71148" stroke-linecap="round" stroke-linejoin="round"/>
<path d="M12.2523 5.90842L7.25231 9.97092C6.3445 10.7085 5.89059 11.0773 5.64792 11.5871C5.40527 12.0969 5.40527 12.6818 5.40527 13.8515V18.3466C5.40527 23.0606 5.40527 25.4178 6.86974 26.8821C8.33421 28.3466 10.6912 28.3466 15.4053 28.3466C20.1193 28.3466 22.4764 28.3466 23.9408 26.8821C25.4053 25.4178 25.4053 23.0606 25.4053 18.3466V13.8515C25.4053 12.6818 25.4053 12.0969 25.1626 11.5871C24.9199 11.0773 24.466 10.7085 23.5583 9.97092L18.5583 5.90842C17.048 4.68135 16.2929 4.06781 15.4053 4.06781C14.5176 4.06781 13.7625 4.68135 12.2523 5.90842Z" stroke="#FAFAFA" stroke-width="1.71148"/>
<path d="M12.5928 21.1591H18.2178" stroke="#FAFAFA" stroke-width="1.71148" stroke-linecap="round"/>
</svg>
