<svg width="31" height="31" viewBox="0 0 31 31" fill="none" xmlns="http://www.w3.org/2000/svg">
<path d="M28.0018 15.8466C28.0018 8.77048 22.2655 3.03413 15.1893 3.03413C8.11318 3.03413 2.37683 8.77048 2.37683 15.8466C2.37683 22.9228 8.11318 28.6591 15.1893 28.6591C22.2655 28.6591 28.0018 22.9228 28.0018 15.8466Z" stroke="#FAFAFA" stroke-width="1.71148"/>
<path d="M10.1893 17.0966C10.8797 17.0966 11.4393 16.537 11.4393 15.8466C11.4393 15.1563 10.8797 14.5966 10.1893 14.5966C9.49898 14.5966 8.93933 15.1563 8.93933 15.8466C8.93933 16.537 9.49898 17.0966 10.1893 17.0966Z" fill="#FAFAFA"/>
<path d="M15.1893 17.0966C15.8797 17.0966 16.4393 16.537 16.4393 15.8466C16.4393 15.1563 15.8797 14.5966 15.1893 14.5966C14.499 14.5966 13.9393 15.1563 13.9393 15.8466C13.9393 16.537 14.499 17.0966 15.1893 17.0966Z" fill="#FAFAFA"/>
<path d="M20.1893 17.0966C20.8797 17.0966 21.4393 16.537 21.4393 15.8466C21.4393 15.1563 20.8797 14.5966 20.1893 14.5966C19.499 14.5966 18.9393 15.1563 18.9393 15.8466C18.9393 16.537 19.499 17.0966 20.1893 17.0966Z" fill="#FAFAFA"/>
</svg>
