<svg width="28" height="28" viewBox="0 0 28 28" fill="none" xmlns="http://www.w3.org/2000/svg">
<path d="M19.9999 21.9998H7.99989C7.46946 21.9998 6.96075 21.7891 6.58568 21.4141C6.2106 21.039 5.99989 20.5303 5.99989 19.9998V17.9998C5.99989 17.4476 6.4476 16.9998 6.99989 16.9998C7.55217 16.9998 7.99989 17.4476 7.99989 17.9998V18.4998C7.99989 19.3283 8.67146 19.9998 9.49989 19.9998H18.4999C19.3283 19.9998 19.9999 19.3283 19.9999 18.4998V17.9998C19.9999 17.4476 20.4476 16.9998 20.9999 16.9998C21.5522 16.9998 21.9999 17.4476 21.9999 17.9998V19.9998C21.9999 20.5303 21.7892 21.039 21.4141 21.4141C21.039 21.7891 20.5303 21.9998 19.9999 21.9998Z" fill="#FAFAFA"/>
<path d="M0 13.9997C0 13.4474 0.447715 12.9997 1 12.9997H27C27.5523 12.9997 28 13.4474 28 13.9997C28 14.5519 27.5523 14.9997 27 14.9997H1C0.447715 14.9997 0 14.5519 0 13.9997Z" fill="#FAFAFA"/>
<path d="M21.9999 9.99969C21.9999 10.552 21.5522 10.9997 20.9999 10.9997C20.4476 10.9997 19.9999 10.552 19.9999 9.99969V9.49969C19.9999 8.67126 19.3283 7.99969 18.4999 7.99969H9.49989C8.67146 7.99969 7.99989 8.67126 7.99989 9.49969V9.99969C7.99989 10.552 7.55217 10.9997 6.99989 10.9997C6.4476 10.9997 5.99989 10.552 5.99989 9.99969V7.99969C5.99989 7.46926 6.2106 6.96055 6.58568 6.58548C6.96075 6.2104 7.46946 5.99969 7.99989 5.99969H19.9999C20.5303 5.99969 21.039 6.2104 21.4141 6.58548C21.7892 6.96055 21.9999 7.46926 21.9999 7.99969V9.99969Z" fill="#FAFAFA"/>
<path d="M28 7C28 7.55228 27.5523 8 27 8C26.4477 8 26 7.55228 26 7V5C26 3.34315 24.6569 2 23 2H21C20.4477 2 20 1.55228 20 1C20 0.447715 20.4477 0 21 0H24C26.2092 0 28 1.79086 28 4V7Z" fill="#FAFAFA"/>
<path d="M2 7C2 7.55228 1.55228 8 1 8C0.447715 8 0 7.55228 0 7V4C0 1.79086 1.79086 0 4 0H7C7.55228 0 8 0.447715 8 1C8 1.55228 7.55228 2 7 2H5C3.34315 2 2 3.34315 2 5V7Z" fill="#FAFAFA"/>
<path d="M8 26.9997C8 27.552 7.55228 27.9997 7 27.9997H4C1.79086 27.9997 0 26.2088 0 23.9997V20.9997C0 20.4474 0.447715 19.9997 1 19.9997C1.55228 19.9997 2 20.4474 2 20.9997V22.9997C2 24.6565 3.34315 25.9997 5 25.9997H7C7.55228 25.9997 8 26.4474 8 26.9997Z" fill="#FAFAFA"/>
<path d="M27.9999 23.9997C27.9999 26.2088 26.209 27.9997 23.9999 27.9997H20.9999C20.4476 27.9997 19.9999 27.552 19.9999 26.9997C19.9999 26.4474 20.4476 25.9997 20.9999 25.9997H22.9999C24.6568 25.9997 25.9999 24.6565 25.9999 22.9997V20.9997C25.9999 20.4474 26.4476 19.9997 26.9999 19.9997C27.5522 19.9997 27.9999 20.4474 27.9999 20.9997V23.9997Z" fill="#FAFAFA"/>
</svg>
